<svg width="38" height="37" viewBox="0 0 38 37" fill="none" xmlns="http://www.w3.org/2000/svg">
<path d="M19.4755 1.08156L23.2393 12.6652C23.4401 13.2832 24.016 13.7016 24.6659 13.7016H36.8456C37.3299 13.7016 37.5313 14.3214 37.1395 14.6061L27.2859 21.7652C26.7601 22.1472 26.5401 22.8242 26.741 23.4422L30.5047 35.0258C30.6544 35.4865 30.1271 35.8696 29.7353 35.5849L19.8817 28.4258C19.3559 28.0438 18.6441 28.0438 18.1183 28.4258L8.26473 35.5849C7.87287 35.8695 7.34563 35.4865 7.49531 35.0258L11.259 23.4422C11.4599 22.8242 11.2399 22.1472 10.7141 21.7652L0.860545 14.6061C0.468692 14.3214 0.670075 13.7016 1.15444 13.7016H13.3342C13.984 13.7016 14.5599 13.2832 14.7607 12.6652L18.5245 1.08156C18.6741 0.620904 19.3259 0.620901 19.4755 1.08156Z" stroke="black"/>
</svg>
